<svg xmlns="http://www.w3.org/2000/svg" viewBox="0 0 64 64" fill="none">
  <circle cx="32" cy="32" r="30" fill="#2563eb"/>
  <path d="M32 12C20.954 12 12 20.954 12 32s8.954 20 20 20 20-8.954 20-20S43.046 12 32 12zm0 36c-8.837 0-16-7.163-16-16s7.163-16 16-16 16 7.163 16 16-7.163 16-16 16z" fill="white"/>
  <path d="M32 20v-4c-2.21 0-4 1.79-4 4h4V20zm0 24v4c2.21 0 4-1.79 4-4h-4v4zm-12-8H16c0-2.21 1.79-4 4-4v4zm24 0v-4c2.21 0 4 1.79 4 4h-4z" fill="white"/>
  <circle cx="32" cy="32" r="8" fill="white"/>
  <path d="M32 26l2 2-2 2-2-2 2-2z" fill="#2563eb"/>
</svg>
